<svg xmlns="http://www.w3.org/2000/svg" viewBox="0 0 64 64" width="64" height="64" shape-rendering="crispEdges" xml:space="preserve"><title>神兽纪元 IP 像素画</title><desc>IP 像素画矢量导出（64x64 格，优化后 18 个矩形）</desc><rect width="64" height="64" fill="#fef9f2"/><g fill="#171822"><path d="M20 20h2v2h-2z M20 38h2v4h-2z M18 22h2v2h-2z M22 22h2v2h-2z M16 24h2v2h-2z M20 24h6v2h-6z M38 24h4v2h-4z M38 42h4v2h-4z M18 26h4v2h-4z M26 26h12v2h-12z M26 40h12v2h-12z M42 26h2v12h-2z M42 40h2v2h-2z M14 28h8v2h-8z M14 36h8v2h-8z M44 38h2v2h-2z M22 42h4v2h-4z"/></g><g fill="#ffffff"><path d="M18 30h2v2h-2z"/></g></svg>